<svg width="26" height="32" viewBox="0 0 26 32" fill="none" xmlns="http://www.w3.org/2000/svg">
<path d="M25.2531 24.5738C24.1023 22.5281 22.2175 20.211 19.1489 18.8938C17.3939 20.1216 15.2619 20.8445 12.9635 20.8445C10.6638 20.8445 8.53173 20.1216 6.77668 18.8938C3.70818 20.211 1.82328 22.5282 0.673123 24.5738C-0.853343 27.2871 0.34344 31.1264 2.9834 31.1264C5.62343 31.1264 12.9635 31.1264 12.9635 31.1264C12.9635 31.1264 20.3029 31.1264 22.943 31.1264C25.5829 31.1264 26.7797 27.2871 25.2531 24.5738Z" fill="#EA5514"/>
<path d="M12.9635 18.2771C17.4709 18.2771 21.1238 14.6229 21.1238 10.116V8.16099C21.1238 3.65418 17.4709 0 12.9635 0C8.4553 0 4.80179 3.65418 4.80179 8.16106V10.1161C4.80179 14.6229 8.45536 18.2771 12.9635 18.2771Z" fill="#EA5514"/>
</svg>
