<svg width="34" height="29" viewBox="0 0 34 29" fill="none" xmlns="http://www.w3.org/2000/svg">
<path d="M33.5775 12.2142C33.5427 8.94598 32.264 5.88034 29.9737 3.58171C27.6762 1.27219 24.6154 0 21.3507 0H12.2268C5.4854 0.00124609 0 5.4854 0 12.225C0 18.9652 5.4854 24.4506 12.2268 24.4524H18.9694C19.1468 24.4524 19.2403 24.5273 19.2871 24.5903C19.4008 24.7424 19.3505 24.9558 19.3326 25.0163C19.2618 25.2674 19.0832 25.6167 18.7346 26.1835C18.4661 26.6282 18.2168 27.0027 18.1641 27.0824C17.7877 27.6469 17.6583 28.1251 17.7986 28.4295C17.904 28.659 18.1689 28.8005 18.5835 28.8496C18.7238 28.8657 18.9179 28.8765 19.1025 28.8765C19.1996 28.8765 19.293 28.8735 19.3757 28.867C20.2362 28.7932 21.3988 28.6566 22.7578 28.2486C24.7388 27.6529 27.578 26.3903 29.8587 23.7561C32.2987 20.9463 33.586 17.0495 33.5787 12.4863L33.5775 12.2142ZM29.7927 19.8581C28.581 22.2706 26.6815 24.1102 24.1467 25.3272C23.2898 25.7365 22.3718 26.0631 21.4166 26.298L21.1709 26.3585L21.3303 26.0097C21.3891 25.8839 21.4478 25.7586 21.4945 25.6274C21.5832 25.3577 21.6707 25.0617 21.6743 24.677C21.6743 24.357 21.6035 24.0334 21.4693 23.7416C21.2536 23.2706 20.8414 22.8559 20.3344 22.6043C19.819 22.3454 19.2103 22.2195 18.4743 22.2195H12.2267C9.55886 22.2195 7.04931 21.1799 5.15926 19.2923C3.27163 17.4035 2.23266 14.8933 2.23141 12.2249C2.23266 9.55827 3.2717 7.04871 5.15926 5.15873C7.04924 3.27176 9.55886 2.232 12.2267 2.232H21.3507C24.0089 2.23259 26.5101 3.2717 28.3917 5.15748C30.2674 7.04268 31.316 9.55702 31.3448 12.2363L31.3472 12.4862C31.3447 15.3236 30.8223 17.8039 29.7927 19.8581Z" fill="#EA5514"/>
</svg>
