<svg width="33" height="35" viewBox="0 0 33 35" fill="none" xmlns="http://www.w3.org/2000/svg">
<path d="M19.1246 22.2426C19.1246 24.1042 18.2087 25.0338 16.3747 25.0338H14.4464L13.6663 30.6969C13.4201 32.5033 12.6262 33.4053 11.287 33.4053C9.64628 33.4053 8.82478 32.4757 8.82478 30.6141V30.163L9.56344 25.0338H8.2495L7.42801 30.6969C7.2094 32.5033 6.45693 33.4053 5.17061 33.4053C3.47469 33.4053 2.62557 32.4757 2.62557 30.6141C2.62557 29.903 2.6808 29.521 2.78895 29.4658L3.36423 25.0338H2.66699C0.888231 25.0338 0 24.1042 0 22.2426C0 20.381 0.888231 19.4513 2.66699 19.4513H4.10289L4.88297 13.3373H3.61045C1.80408 13.3373 0.902038 12.4076 0.902038 10.546C0.902038 8.68441 1.80408 7.71334 3.61045 7.71334H5.62163L6.27745 2.91091C6.52597 0.971071 7.33136 0 8.70052 0C10.3688 0 11.2041 0.984878 11.2041 2.95463V3.52991L10.5483 7.71564H11.8623L12.5181 2.91321C12.7367 0.971071 13.5168 0 14.8583 0C16.499 0 17.3205 0.984878 17.3205 2.95463V3.40565L16.7038 7.71564H17.2791C19.1108 7.71564 20.0289 8.6591 20.0289 10.5483C20.0289 12.4375 19.1131 13.3396 17.2791 13.3396H16.0066L15.1437 19.4536H16.3747C18.2064 19.4536 19.1246 20.3833 19.1246 22.2449V22.2426ZM8.94674 19.4513H10.3021L11.1236 13.3373H9.80966L8.94674 19.4513Z" fill="#EA5514"/>
<path d="M29.0562 34.97C28.2163 34.97 27.427 34.6432 26.8356 34.0495L23.8258 31.0397C22.6706 31.5643 21.4211 31.8382 20.1601 31.8382C17.7646 31.8382 15.5279 30.9108 13.8435 29.2264C12.1568 27.542 11.2295 25.3007 11.2318 22.919C11.2295 20.542 12.1568 18.3007 13.8435 16.614C15.5256 14.9295 17.7646 14.0022 20.144 14.0022C22.5233 14.0022 24.7715 14.9295 26.4536 16.614C28.1404 18.2984 29.0677 20.5397 29.0654 22.9213C29.0654 24.1846 28.7916 25.4364 28.2669 26.5962L31.2768 29.6061C32.501 30.8303 32.501 32.823 31.2768 34.0495C30.6831 34.6432 29.8938 34.97 29.0562 34.97ZM20.1509 19.5525C19.2488 19.5548 18.402 19.9046 17.7669 20.5397C17.1341 21.1748 16.782 22.0216 16.7797 22.9236C16.7797 23.8211 17.1318 24.6679 17.7669 25.3053C18.402 25.9381 19.2488 26.2902 20.1509 26.2925C21.0483 26.2925 21.8951 25.9404 22.5325 25.3053C23.1653 24.6702 23.5174 23.8234 23.5197 22.9213C23.5197 22.0239 23.1676 21.1771 22.5325 20.542C21.8974 19.9092 21.0506 19.5571 20.1509 19.5548V19.5525Z" fill="white"/>
<path d="M14.7663 17.5391C16.2482 16.0549 18.2064 15.307 20.1486 15.3093C22.093 15.3093 24.049 16.0549 25.5309 17.5391C27.0151 19.021 27.763 20.9793 27.7607 22.9214C27.7607 24.2791 27.3902 25.6367 26.6653 26.8425L30.3517 30.5289C31.0697 31.2469 31.0697 32.4089 30.3517 33.1269C29.6338 33.8448 28.4717 33.8448 27.7538 33.1269L24.0674 29.4405C22.8639 30.1653 21.5039 30.5381 20.1486 30.5358C18.2064 30.5358 16.2482 29.7903 14.7663 28.306C13.2821 26.8241 12.5342 24.8659 12.5365 22.9214C12.5365 20.9793 13.2821 19.021 14.7663 17.5391ZM16.8442 26.2281C17.76 27.144 18.9474 27.595 20.1486 27.5973C21.3498 27.5973 22.5371 27.144 23.453 26.2281C24.3688 25.31 24.8199 24.1249 24.8222 22.9214C24.8222 21.7202 24.3688 20.5329 23.453 19.617C22.5348 18.7012 21.3498 18.2502 20.1486 18.2479C18.9474 18.2479 17.76 18.7012 16.8442 19.617C15.9283 20.5329 15.4773 21.7202 15.475 22.9214C15.475 24.1226 15.9283 25.31 16.8442 26.2281Z" fill="#EA5514"/>
</svg>
