<svg width="340" height="251" viewBox="0 0 340 251" fill="none" xmlns="http://www.w3.org/2000/svg">
<g clip-path="url(#clip0_9_113)">
<path d="M6.79002 44.8701H32.45L34.06 54.5301H4.60002C3.33002 54.5301 2.41002 54.9901 1.61002 55.9101C0.800022 56.9501 0.460022 57.8701 0.460022 59.1301V77.9901C0.460022 79.1401 0.800022 80.0601 1.61002 80.8701C2.41002 81.5601 3.33002 82.0201 4.60002 82.1401H39.23L42.68 100.43C43.02 102.15 43.6 103.42 44.52 104.11C45.33 104.68 46.94 105.03 49 105.03H72.24C73.85 105.03 75 104.69 75.57 104C76.15 103.31 76.15 102.04 75.8 100.2L72.35 82.1401H96.51C97.9 82.0301 99.04 81.5601 99.85 80.8701C100.66 80.0601 101.12 79.1401 101.12 77.9901V59.1301C101.12 57.8601 100.66 56.9401 99.85 55.9101C99.04 54.9901 97.9 54.5301 96.51 54.5301H67.41L65.57 44.8701H94.34C95.72 44.7601 96.76 44.2901 97.56 43.4901C98.37 42.8001 98.83 41.8801 98.94 40.7201V29.7901H73.28C70.75 29.7901 68.57 28.8701 66.95 27.2601C65.23 25.5401 64.42 23.6901 64.3 21.2801V17.2501H60.39L58.67 8.1601C58.33 5.9701 57.75 4.5901 56.95 4.0201C56.14 3.4401 54.42 3.1001 51.89 3.1001H30.03C27.96 3.1001 26.58 3.4401 26 4.2501C25.42 4.9401 25.19 6.3201 25.54 8.1601L27.27 17.2501H6.79002C5.52002 17.2501 4.72002 17.7101 3.91002 18.6301C3.11002 19.5501 2.64002 20.5901 2.64002 21.8501V40.7101C2.64002 41.8601 3.10002 42.7801 3.91002 43.4801C4.72002 44.2801 5.52002 44.7501 6.79002 44.8601V44.8701Z" fill="#040000"/>
<path d="M105.85 21.74V4.48C105.85 3.33 105.39 2.29 104.58 1.38C103.77 0.46 102.62 0 101.24 0H93.53C92.04 0 90.88 0.46 90.08 1.38C89.16 2.3 88.7 3.33 88.59 4.48V21.74C88.7 23.01 89.17 23.92 90.08 24.84C90.89 25.76 92.04 26.22 93.53 26.22H101.24C102.62 26.22 103.77 25.76 104.58 24.84C105.38 23.92 105.85 23 105.85 21.74Z" fill="#00A0E9"/>
<path d="M85.14 21.74V4.48C85.14 3.33 84.68 2.29 83.87 1.38C83.06 0.46 81.91 0 80.65 0H72.83C71.45 0 70.18 0.46 69.38 1.38C68.46 2.3 68 3.33 67.89 4.48V21.74C68 23.01 68.47 23.92 69.38 24.84C70.19 25.76 71.45 26.22 72.83 26.22H80.65C81.92 26.22 83.07 25.76 83.87 24.84C84.67 23.92 85.14 23 85.14 21.74Z" fill="#00A0E9"/>
<path d="M202.37 3.56006H137.71C131.15 3.68006 126.55 5.17006 123.9 8.05006C121.03 10.8101 119.76 15.6401 119.64 22.5401V86.2801C119.75 93.1801 121.02 98.0101 123.9 100.77C126.55 103.65 131.15 105.26 137.71 105.26H202.37C208.93 105.26 213.53 103.65 216.29 100.77C219.05 98.0101 220.43 93.1801 220.43 86.2801V22.5501C220.43 15.6501 219.05 10.8201 216.29 8.06006C213.53 5.18006 208.93 3.69006 202.37 3.57006V3.56006Z" fill="#040000"/>
<path d="M189.6 39.3402V69.4902C189.6 70.5302 189.14 71.4402 188.33 72.1402C187.41 72.9402 186.38 73.4102 184.99 73.4102H155.08C153.7 73.4102 152.66 72.9502 151.86 72.1402C150.94 71.4502 150.48 70.5302 150.48 69.4902V39.3402C150.48 38.3002 150.94 37.3902 151.86 36.5802C152.66 35.7802 153.7 35.4302 155.08 35.4302H184.99C186.38 35.4302 187.41 35.7802 188.33 36.5802C189.14 37.3902 189.6 38.3002 189.6 39.3402Z" fill="white"/>
<path d="M308.79 57.98C308.79 64.19 307.64 68.22 305.34 70.4C302.92 72.47 299.01 73.51 293.26 73.39H243.56C242.18 73.39 241.03 73.73 240.23 74.54C239.31 75.34 238.96 76.38 238.96 77.53V101C238.96 102.27 239.3 103.3 240.23 104.11C241.03 104.91 242.18 105.26 243.56 105.26H301.89C314.78 105.26 324.32 102.38 330.54 96.4C336.87 90.53 339.86 80.87 339.74 67.41V36.12C339.74 34.85 339.28 33.82 338.47 33.13C337.66 32.33 336.52 31.98 335.13 31.98H312.93C311.78 31.98 310.98 32.32 310.17 33.13C309.36 33.82 308.9 34.86 308.79 36.12V57.98Z" fill="#00913A"/>
<path d="M242.87 3.56006C241.6 3.56006 240.68 3.91006 239.88 4.60006C239.08 5.41006 238.73 6.44006 238.73 7.59006V31.1701C238.73 32.4401 239.08 33.2401 239.88 34.0501C240.69 34.8601 241.61 35.3201 242.87 35.4301H292C293.27 35.3201 294.3 34.8601 295.1 34.0501C295.91 33.2501 296.25 32.4401 296.25 31.1701V7.59006C296.25 6.44006 295.91 5.40006 295.1 4.60006C294.3 3.91006 293.26 3.56006 292 3.56006H242.87Z" fill="#040000"/>
<path d="M97.1 193.93L88.58 188.87V141.35C88.58 140.08 88.12 139.05 87.31 138.25C86.62 137.56 85.47 137.21 84.09 137.21H61.88C60.73 137.21 59.81 137.55 59 138.25C58.2 139.05 57.85 140.09 57.73 141.35V170.46L18.04 146.76C17.01 146.42 16.09 146.42 15.39 146.99C14.82 147.45 14.47 148.26 14.47 149.29V178.17C14.47 179.66 14.81 180.7 15.39 181.27C16.08 181.96 17 182.65 18.04 183.23L51.98 203.47C48.99 205.66 44.96 206.81 39.9 206.69H4.59999C3.21999 206.69 2.06999 207.03 1.25999 207.84C0.45999 208.64 -0.0100098 209.68 -0.0100098 210.83V234.3C-0.0100098 235.57 0.44999 236.6 1.25999 237.41C2.06999 238.21 3.21999 238.56 4.59999 238.56H50.85C63.62 238.56 73.17 235.68 79.5 229.7C81.57 227.86 83.18 225.44 84.56 222.79L97.1 230.27C98.37 230.85 99.4 230.73 100.2 230.16C101.01 229.59 101.24 228.89 101.24 227.74V199.9C101.24 198.17 101.01 196.91 100.2 195.98C99.4 195.29 98.36 194.49 97.1 193.91V193.93Z" fill="#EA5514"/>
<path d="M123.56 136.87C122.29 136.87 121.37 137.22 120.57 137.91C119.77 138.72 119.42 139.75 119.42 140.9V157.23C119.42 158.5 119.77 159.42 120.57 160.22C121.38 161.02 122.3 161.49 123.56 161.6H172.69C173.96 161.49 174.99 161.02 175.79 160.22C176.59 159.42 176.94 158.49 176.94 157.23V140.9C176.94 139.75 176.6 138.71 175.79 137.91C174.99 137.22 173.95 136.87 172.69 136.87H123.56Z" fill="#040000"/>
<path d="M123.56 168.28C122.29 168.28 121.37 168.62 120.57 169.43C119.77 170.23 119.42 171.27 119.42 172.31V188.76C119.42 190.03 119.77 190.83 120.57 191.64C121.38 192.45 122.3 192.91 123.56 193.02H172.69C173.96 192.91 174.99 192.45 175.79 191.64C176.6 190.83 176.94 190.03 176.94 188.76V172.31C176.94 171.27 176.6 170.24 175.79 169.43C174.99 168.62 173.95 168.28 172.69 168.28H123.56Z" fill="#040000"/>
<path d="M189.49 191.29C189.49 197.5 188.34 201.53 186.04 203.71C183.62 205.78 179.71 206.82 173.96 206.7H124.26C122.88 206.7 121.73 207.04 120.93 207.85C120.01 208.65 119.66 209.69 119.66 210.84V234.31C119.66 235.58 120 236.61 120.93 237.42C121.73 238.22 122.88 238.57 124.26 238.57H182.59C195.48 238.57 205.02 235.69 211.24 229.71C217.57 223.84 220.56 214.18 220.44 200.72V169.43C220.44 168.16 219.98 167.13 219.17 166.44C218.36 165.64 217.22 165.29 215.83 165.29H193.63C192.48 165.29 191.68 165.63 190.87 166.44C190.06 167.13 189.6 168.17 189.49 169.43V191.29Z" fill="#040000"/>
<path d="M275.15 135.02H252.69V210.5H275.15V135.02Z" fill="#040000"/>
<path d="M319.55 135.02H297.09V210.5H319.55V135.02Z" fill="#040000"/>
<path d="M264.18 216.71C265.53 216.71 266.23 217.71 266.93 218.58C268.35 220.36 269.59 222.29 270.44 224.41C271.02 225.85 271.93 226.63 273.37 227.16C275.68 228 277.62 229.55 279.49 231.11C281.12 232.47 280.96 234.42 279.34 235.82C277.33 237.57 275.06 238.89 272.65 240C271.77 240.41 271.13 241.01 270.72 241.91C269.72 244.11 268.46 246.15 267.04 248.11C266.33 249.09 265.47 249.73 264.4 250.2C264.07 250.34 263.83 250.39 263.49 250.23C262.21 249.65 261.37 248.63 260.56 247.54C259.09 245.58 258.03 243.39 256.93 241.22C256.67 240.7 256.09 240.48 255.58 240.21C252.97 238.81 250.32 237.49 248.17 235.38C246.99 234.22 246.86 232.86 248 231.63C249.78 229.71 252.03 228.47 254.35 227.39C256.02 226.62 257.17 225.55 257.92 223.81C258.87 221.62 259.98 219.47 261.8 217.8C262.48 217.18 263.22 216.72 264.18 216.71Z" fill="#EAB932"/>
<path d="M308.58 216.71C309.93 216.71 310.63 217.71 311.33 218.58C312.75 220.36 313.99 222.29 314.84 224.41C315.42 225.85 316.33 226.63 317.77 227.16C320.08 228 322.02 229.55 323.89 231.11C325.52 232.47 325.36 234.42 323.74 235.82C321.73 237.57 319.46 238.89 317.05 240C316.17 240.41 315.53 241.01 315.12 241.91C314.12 244.11 312.86 246.15 311.44 248.11C310.73 249.09 309.87 249.73 308.8 250.2C308.47 250.34 308.23 250.39 307.89 250.23C306.61 249.65 305.77 248.63 304.96 247.54C303.49 245.58 302.43 243.39 301.33 241.22C301.07 240.7 300.49 240.48 299.98 240.21C297.37 238.81 294.72 237.49 292.57 235.38C291.39 234.22 291.26 232.86 292.4 231.63C294.18 229.71 296.43 228.47 298.75 227.39C300.42 226.62 301.57 225.55 302.32 223.81C303.27 221.62 304.38 219.47 306.2 217.8C306.88 217.18 307.62 216.72 308.58 216.71Z" fill="#EAB932"/>
</g>
<defs>
<clipPath id="clip0_9_113">
<rect width="339.74" height="250.32" fill="white"/>
</clipPath>
</defs>
</svg>
